<svg width="96" height="96" xmlns="http://www.w3.org/2000/svg" xmlns:xlink="http://www.w3.org/1999/xlink" xml:space="preserve" overflow="hidden"><defs><clipPath id="clip0"><rect x="592" y="312" width="96" height="96"/></clipPath></defs><g clip-path="url(#clip0)" transform="translate(-592 -312)"><path d="M669.4 336.2 661 324 661 320.4C661 319.5 659.9 319.1 659.3 319.7L645.5 332.6C643.9 334.1 643 336.2 643 338.4L643 339C643 347.5 620 351 620 378 620 381.6 620.2 384.7 620.7 387.3 620.5 387.1 620.3 386.9 620 386.7 617.7 384.5 615 379.6 615 369 615 365.3 616.8 361.5 618.6 357.9 621.4 352.1 624.6 345.5 619.1 339.9 617.9 338.7 616 338.7 614.9 339.9 613.7 341.1 613.7 343 614.9 344.1 617.2 346.4 616.2 349.1 613.3 355.2 611.2 359.3 609 364 609 369 609 379.3 611.4 386.8 616 391.2 618.4 393.5 621 394.4 622.8 394.8 624.7 398.8 627 400 628 400L640 400C641.7 400 643 398.7 643 397 643 395.5 641.9 394.2 640.4 394L637 394C640.8 391.9 644 387.6 644 380 644 373.4 642.7 370.7 638.3 368.3 637.6 367.9 637.3 367 637.7 366.3 638.1 365.6 639 365.3 639.7 365.7 645.8 368.9 647 373.4 647 380 647 383.6 646.3 386.8 645 389.5L645 397C645 398.7 646.3 400 648 400 649.7 400 651 398.7 651 397L651 387.8C651.7 387 652.4 386.1 653 385.1L653 397C653 398.7 654.3 400 656 400 657.7 400 659 398.7 659 397L659 370.4C659.7 367.4 660 364.8 660 363 660 355.1 658 354.3 658 350 658 347.8 659.8 346 662 346 666.4 346 670 342.4 670 338 670 337.3 669.8 336.7 669.4 336.2Z"/></g></svg>